<?xml version="1.0" encoding="utf-8"?>
<!-- Generator: Adobe Illustrator 27.5.0, SVG Export Plug-In . SVG Version: 6.00 Build 0)  -->
<svg version="1.1" xmlns="http://www.w3.org/2000/svg" xmlns:xlink="http://www.w3.org/1999/xlink" x="0px" y="0px"
	 viewBox="0 0 750 500" style="enable-background:new 0 0 750 500;" xml:space="preserve">
<g id="BACKGROUND">
	<rect style="fill:#008ED2;" width="750" height="500"/>
</g>
<g id="OBJECTS">
	<g>
		<defs>
			<rect id="SVGID_1_" width="750" height="500"/>
		</defs>
		<clipPath id="SVGID_00000023999750736828008740000007526126470796367284_">
			<use xlink:href="#SVGID_1_"  style="overflow:visible;"/>
		</clipPath>
		<path style="clip-path:url(#SVGID_00000023999750736828008740000007526126470796367284_);fill:#007599;" d="M99.308,70.893
			c25.739,10.741,48.422,27.563,72.981,40.782c32.307,17.389,68.52,28.576,105.206,28.079
			c36.687-0.497,73.811-13.377,100.196-38.872c31.539-30.475,47.197-77.363,85.541-98.652c12.308-6.834,26.102-10.443,39.144-15.744
			c7.609-3.093,16.349-9.618,13.924-17.466c-2.264-7.327-12.041-8.39-19.703-8.06c-90.497,3.898-180.995,7.797-271.492,11.695
			c-24.973,1.076-49.946,2.152-74.919,3.227C96.924-21.823,43.661-19.528-9.602-17.234c-6.672,0.287-13.961,0.822-18.837,5.386
			c-5.436,5.089-6.004,13.406-5.848,20.85c0.609,29.008,1.336,54.536,35.31,51.69C35.495,57.804,66.578,57.234,99.308,70.893z"/>
		<path style="clip-path:url(#SVGID_00000023999750736828008740000007526126470796367284_);fill:#007599;" d="M61.169,373.012
			c31.157-0.801,60.101-15.062,89.345-25.841c28.728-10.589,59.069-18.048,89.67-17.047c30.601,1.001,61.612,11.084,84.024,31.943
			c21.579,20.084,33.53,48.093,47.202,74.209c13.673,26.116,31.209,52.49,58.288,64.14c6.487,2.791,13.931,5.099,17.531,11.174
			c5.646,9.527-2.629,22.344-13.169,25.742c-10.54,3.398-21.931,0.445-32.727-2.023c-91.806-20.987-187.408-5.421-281.557-3.193
			c-38.007,0.899-76.066-0.4-113.923-3.888c-7.189-0.662-14.483-1.431-21.176-4.139c-16.367-6.622-26.364-24.008-29.06-41.456
			c-2.696-17.449,0.668-35.201,4.02-52.535c3.881-20.066,3.415-72.735,28.622-78.652c13.008-3.053,22.53,7.174,33.104,12.492
			C33.826,370.205,47.257,373.012,61.169,373.012z"/>
		<path style="clip-path:url(#SVGID_00000023999750736828008740000007526126470796367284_);fill:#007599;" d="M589.39,58.634
			c-0.497,0.785-0.973,1.589-1.426,2.413c-12.439,22.627-9.714,50.902,3.196,72.702c14.029,23.689,36.401,27.749,59.519,38.068
			c41.33,18.447,69.085,58.311,68.393,103.749c-0.494,32.397-0.482,67.075,36.663,78.88c3.486,1.108,7.21,1.862,10.793,1.129
			c11.528-2.357,14.649-17.12,15.253-28.871c4.968-96.608,4.937-193.473-0.093-290.078c-1.192-22.886-4.543-49.164-23.739-61.683
			c-17.592-11.474-39.806-6.243-59.007-2.991c-15.686,2.657-41.027,0.932-54.305,10.777c-10.574,7.84-11.121,22.169-16.544,33.179
			C619.367,33.62,599.772,42.224,589.39,58.634z"/>
		<path style="clip-path:url(#SVGID_00000023999750736828008740000007526126470796367284_);fill:#03ABED;" d="M730.816,93.405
			c-22.525,5.279-45.897,7.782-66.996,17.812c-21.099,10.03-40.198,29.879-42.124,54.712c-1.368,17.637,6.902,35.899,20.914,45.049
			c14.012,9.15,33.151,8.417,46.215-2.247c11.478-9.369,17.351-24.48,25.591-37.224c11.265-17.421,27.635-30.921,46.153-38.062
			c17.545-6.766,37.682-8.427,51.576-21.842c6.303-6.086,10.724-14.124,14.294-22.405c11.515-26.707-1.977-76.646-36.228-51.896
			c-8.885,6.42-11.181,19.951-16.99,29.031C762.74,82.715,748.479,89.265,730.816,93.405z"/>
		<path style="clip-path:url(#SVGID_00000023999750736828008740000007526126470796367284_);fill:#00536D;" d="M266.298,3.907
			c26.858,22.279,50.303,48.466,77.466,70.372c67.747,54.634,164.554,79.522,244.222,44.483
			c14.261-6.272,28.088-14.608,37.535-26.997c9.447-12.389,13.835-29.447,8.184-43.965c-7.415-19.052-29.403-28.471-49.8-29.853
			c-43.741-2.965-87.62,21.284-130.177,10.747c-38.939-9.641-64.784-45.18-95.797-70.624
			c-45.964-37.71-108.487-54.442-167.142-44.732c-27.675,4.582-49.713,28.801-18.556,44.671
			C205.016-25.292,236.156-21.097,266.298,3.907z"/>
		<path style="clip-path:url(#SVGID_00000023999750736828008740000007526126470796367284_);fill:#03ABED;" d="M-28.447,155.233
			c-10.778,26.241-10.984,135.334,45.559,102.324c14.483-8.457,14.206-26.856,18.032-41.463
			c7.941-30.315,34.008-54.852,64.336-60.559c42.063-7.915,90.502,16.857,125.882-7.544c22.228-15.331,29.774-48.985,16.299-72.697
			c-27.936-49.16-98.88-44.175-143.974-30.537C42.913,61.322-6.138,100.945-28.447,155.233z"/>
		<path style="clip-path:url(#SVGID_00000023999750736828008740000007526126470796367284_);fill:#00536D;" d="M59.295,255.21
			c-4.754,3.356-8.771,7.394-11.457,11.729c-12.375,19.969,2.927,40.422,16.178,55.949c28.381,33.254,27.936,56.996,18.43,99.694
			c-6.459,29.01-9.243,58.836-8.266,88.541c0.424,12.881,1.769,26.386,8.994,37.058c5.998,8.859,15.436,14.79,25.112,19.355
			c34.834,16.436,78.234,17.277,110.588-3.621c32.354-20.898,49.496-65.321,34.03-100.596
			c-22.618-51.587-97.375-63.579-120.216-115.075C118.354,315.927,124.434,209.219,59.295,255.21z"/>
		<path style="clip-path:url(#SVGID_00000023999750736828008740000007526126470796367284_);fill:#00536D;" d="M266.804,134.9
			c1.621,9.53,10.047,17.482,19.654,18.552c3.87,0.431,7.802-0.155,11.537-1.257c4.517-1.332,8.996-3.579,11.684-7.445
			c1.734-2.494,2.601-5.489,3.141-8.478c0.722-3.997,0.901-8.147-0.042-12.098c-1.586-6.646-6.483-12.415-12.784-15.058
			C283.72,102.288,263.807,117.284,266.804,134.9z"/>
		<path style="clip-path:url(#SVGID_00000023999750736828008740000007526126470796367284_);fill:#002933;" d="M715.355,336.433
			c-63.974,59.438-155.424,88.001-241.855,75.539c-42.772-6.167-83.951-21.729-126.998-25.522
			c-11.539-1.017-23.428-1.138-34.402,2.573c-10.973,3.711-20.982,11.841-24.389,22.913c-5.572,18.111,8.585,37.516,26.134,44.663
			c17.549,7.147,37.287,5.29,56.15,3.49c37.259-3.556,76.257-6.185,110.791,8.246c33.149,13.852,58.34,41.892,90.015,58.845
			c50.635,27.1,115.277,22.371,164.672-6.929c49.395-29.299,83.632-80.849,97.575-136.562c5.57-22.26,8.047-46.169,0.591-67.869
			c-7.456-21.701-26.8-40.482-49.72-41.589c-15.471-0.747-26.431,4.035-33.708,16.996
			C740.559,308.418,729.896,322.923,715.355,336.433z"/>
		<path style="clip-path:url(#SVGID_00000023999750736828008740000007526126470796367284_);fill:#00536D;" d="M657.525,270.539
			c-3.542,9.067-2.901,19.381,1.245,28.225c27.87,59.462,104.367-37.917,40.791-52.806
			C681.324,241.689,663.492,255.263,657.525,270.539z"/>
		<g style="clip-path:url(#SVGID_00000023999750736828008740000007526126470796367284_);">
			<path style="fill:#FFFFFF;" d="M642.708,436.84c-1.285-4.093-6.168-6.165-9.733-3.41c-1.668,1.289-2.604,3.054-2.362,5.113
				c-0.596,3.383,2.737,7.132,6.367,7.119C641.472,445.645,643.945,440.78,642.708,436.84z"/>
			<path style="fill:#FFFFFF;" d="M667.464,435.613c-3.28-2.934-9.076-1.995-10.65,2.151c-0.935,1.616-1.273,3.549-0.625,5.35
				c1.514,4.212,6.81,6.167,10.643,3.695C670.689,444.321,670.796,438.594,667.464,435.613z"/>
			<path style="fill:#FFFFFF;" d="M692.896,435.907c-1.046-1.157-2.507-1.767-4.043-1.862c-1.897-0.117-3.684,1.332-4.621,2.871
				c-0.955,1.568-1.129,3.403-0.272,5.042c0.103,0.198,0.229,0.388,0.365,0.571c0.253,0.966,0.732,1.872,1.422,2.578
				c2.331,2.386,6.419,1.905,8.115-0.959C695.409,441.535,694.909,438.134,692.896,435.907z"/>
			<path style="fill:#FFFFFF;" d="M641.427,405.48c-2.577-4.446-9.875-3.936-11.308,1.202c-0.085,0.304-0.116,0.608-0.124,0.912
				c-0.346,0.734-0.547,1.572-0.518,2.222c0.058,1.29,0.481,2.633,1.462,3.53c1.646,1.505,3.538,2.077,5.758,1.673
				c1.225-0.223,2.483-0.97,3.366-1.838C642.045,411.233,642.875,407.978,641.427,405.48z"/>
			<path style="fill:#FFFFFF;" d="M667.584,403.337c-0.198-0.413-0.501-0.767-0.931-0.975c-0.077-0.037-0.21-0.091-0.347-0.144
				c-1.455-1.124-3.104-1.347-4.792-0.503c-0.763,0.381-1.41,0.923-1.936,1.554c-0.004,0.003-0.008,0.006-0.013,0.009
				c-1.876,1.449-2.52,3.421-2.814,5.688c-0.127,0.975,0.439,2.096,1.001,2.824c0.59,0.764,1.449,1.459,2.421,1.67
				c0.548,0.119,1.123,0.183,1.704,0.197c1.529,0.756,3.491,0.536,4.974-0.176C670.941,411.517,670.569,405.974,667.584,403.337z"/>
			<path style="fill:#FFFFFF;" d="M698.509,403.519c-0.896-0.868-2.15-1.569-3.347-1.894c-2.222-0.603-4.587-0.289-6.578,0.857
				c-1.62,0.932-2.505,2.96-2.188,4.789c-0.079,0.199-0.158,0.398-0.242,0.591c-0.688,1.597-0.961,2.986-0.263,4.641
				c0.611,1.449,1.809,2.632,3.38,3.02c4.539,1.119,9.644-1.743,10.511-6.492C700.133,407.111,700.011,404.973,698.509,403.519z"/>
			<path style="fill:#FFFFFF;" d="M640.666,375.298c-1.173-2.039-3.438-3.189-5.726-3.338c-2.309-0.15-4.468,1.021-5.745,2.913
				c-0.88,1.303-1.173,2.934-0.985,4.488c-0.004,0.064-0.017,0.128-0.018,0.192c-0.096,3.53,2.679,6.392,6.249,6.235
				C639.544,385.564,643.338,379.943,640.666,375.298z"/>
			<path style="fill:#FFFFFF;" d="M668.408,369.49c-1.97-2.03-5.009-2.775-7.674-1.765c-1.3,0.493-2.456,1.159-3.365,2.238
				c-1.46,1.733-1.625,3.428-1.307,5.561c0.09,0.602,0.334,1.13,0.682,1.581c0.062,0.45,0.148,0.896,0.292,1.329
				c0.831,2.499,2.708,3.682,5.213,3.969C668.795,383.152,672.856,374.075,668.408,369.49z"/>
			<path style="fill:#FFFFFF;" d="M699.649,370.819c-0.165-0.491-0.343-0.976-0.623-1.439c-0.602-0.996-1.497-1.878-2.502-2.464
				c-2.268-1.323-5.058-1.194-7.292,0.114c-1.783,1.043-3.107,2.901-3.613,4.888c-0.211,0.829-0.254,1.679-0.149,2.496
				c-0.317,2.38,0.162,4.648,1.951,6.437c0.904,0.898,1.969,1.518,3.196,1.862c1.284,0.345,2.567,0.345,3.851,0
				c3.591-0.593,6.287-4.132,6.341-7.652C700.832,373.486,700.402,372.088,699.649,370.819z"/>
		</g>
		<g style="clip-path:url(#SVGID_00000023999750736828008740000007526126470796367284_);">
			<path style="fill:#FFFFFF;" d="M42.449,82.41c1.046-4.161-2.034-8.48-6.513-7.997c-2.096,0.226-3.817,1.242-4.687,3.123
				c-2.277,2.572-1.397,7.511,1.704,9.398C36.792,89.269,41.443,86.415,42.449,82.41z"/>
			<path style="fill:#FFFFFF;" d="M61.403,96.156C60.141,91.94,54.71,89.709,51.2,92.42c-1.642,0.888-2.941,2.36-3.331,4.233
				c-0.912,4.382,2.58,8.818,7.139,8.715C59.598,105.265,62.685,100.439,61.403,96.156z"/>
			<path style="fill:#FFFFFF;" d="M83.999,113.928c-0.286-1.533-1.213-2.817-2.473-3.701c-1.556-1.092-3.837-0.791-5.44,0.03
				c-1.634,0.837-2.742,2.31-2.869,4.156c-0.015,0.223-0.008,0.45,0.012,0.677c-0.29,0.956-0.355,1.979-0.136,2.941
				c0.739,3.253,4.476,4.98,7.419,3.426C83.198,120.039,84.55,116.879,83.999,113.928z"/>
			<path style="fill:#FFFFFF;" d="M60.656,57.909c0.129-5.137-6.359-8.519-10.267-4.889c-0.231,0.215-0.417,0.458-0.582,0.712
				c-0.678,0.444-1.288,1.054-1.604,1.624c-0.625,1.129-0.967,2.496-0.6,3.773c0.616,2.144,1.93,3.621,4.033,4.437
				c1.161,0.45,2.624,0.471,3.83,0.193C58.174,63.136,60.584,60.796,60.656,57.909z"/>
			<path style="fill:#FFFFFF;" d="M83.542,74.537c0.047-0.455-0.026-0.916-0.284-1.318c-0.046-0.072-0.131-0.187-0.221-0.305
				c-0.653-1.719-1.942-2.771-3.821-2.935c-0.849-0.074-1.685,0.049-2.463,0.312c-0.005,0.001-0.01,0-0.015,0.001
				c-2.357,0.254-3.937,1.598-5.373,3.377c-0.618,0.764-0.722,2.016-0.624,2.93c0.104,0.96,0.472,2.001,1.19,2.69
				c0.405,0.388,0.862,0.743,1.349,1.059c0.908,1.444,2.696,2.282,4.332,2.451C82.126,83.265,84.707,78.346,83.542,74.537z"/>
			<path style="fill:#FFFFFF;" d="M106.472,91.84c-0.31-1.208-1.012-2.462-1.862-3.364c-1.578-1.676-3.758-2.645-6.056-2.71
				c-1.868-0.052-3.683,1.214-4.37,2.938c-0.172,0.128-0.343,0.256-0.515,0.378c-1.421,1.001-2.381,2.043-2.651,3.819
				c-0.237,1.555,0.165,3.19,1.302,4.341c3.284,3.328,9.131,3.558,12.354-0.037C105.977,95.751,106.992,93.865,106.472,91.84z"/>
			<path style="fill:#FFFFFF;" d="M77.723,36.617c0.066-2.352-1.263-4.517-3.135-5.84c-1.889-1.335-4.342-1.466-6.421-0.521
				c-1.432,0.651-2.534,1.887-3.187,3.31c-0.037,0.053-0.081,0.101-0.116,0.154c-1.927,2.958-1.058,6.849,2.066,8.582
				C71.399,44.78,77.572,41.973,77.723,36.617z"/>
			<path style="fill:#FFFFFF;" d="M100.542,49.073c-0.617-2.76-2.818-4.985-5.618-5.518c-1.366-0.26-2.7-0.296-4.039,0.148
				c-2.151,0.714-3.177,2.072-4.022,4.057c-0.238,0.56-0.306,1.139-0.245,1.704c-0.183,0.416-0.342,0.841-0.446,1.285
				c-0.599,2.564,0.383,4.555,2.368,6.11C93.727,60.92,101.936,55.307,100.542,49.073z"/>
			<path style="fill:#FFFFFF;" d="M125.357,71.587c0.116-0.504,0.218-1.012,0.222-1.553c0.008-1.163-0.294-2.383-0.844-3.409
				c-1.242-2.313-3.687-3.662-6.275-3.717c-2.065-0.044-4.165,0.849-5.635,2.277c-0.614,0.596-1.095,1.298-1.432,2.049
				c-1.515,1.862-2.293,4.047-1.704,6.507c0.301,1.238,0.884,2.324,1.75,3.259c0.914,0.965,2.008,1.636,3.282,2.014
				c3.371,1.372,7.52-0.234,9.407-3.206C124.97,74.479,125.335,73.062,125.357,71.587z"/>
		</g>
		<path style="clip-path:url(#SVGID_00000023999750736828008740000007526126470796367284_);fill:#002933;" d="M662.962-17.27
			c-4.681-1.854-11.248,0.522-15.337,2.966c-4.602,2.752-8.19,6.935-10.163,11.911c-1.809,4.562-1.62,11.022-5.011,14.778
			c-3.091,3.422-8.826,3.276-13.037,3.749c-5.008,0.563-10.057,1.374-14.22,4.427c-3.735,2.739-5.938,6.651-7.421,10.965
			c-1.424,4.143-1.999,8.525-3.455,12.657c-1.624,4.607-4.08,6.983-9.038,7.69c-6.421,0.915-12.513,1.277-16.493,7.15
			c-2.662,3.928-5.31,11.69-2.329,16.01c0.896,1.299,2.667,1.674,3.866,0.498c3.346-3.284,2.281-8.92,5.529-12.386
			c3.705-3.955,10.769-2.263,15.532-3.898c8.448-2.899,11.013-11.229,13.314-18.981c1.027-3.46,1.987-7.224,4.231-10.139
			c2.62-3.402,7.012-4.032,11.026-4.454c9.805-1.031,19.14-2.558,23.174-12.833c1.945-4.952,1.891-10.948,5.314-15.233
			c1.575-1.972,3.736-3.573,6.054-4.564c2.777-1.188,5.635-0.832,8.467-1.603C667.601-9.823,666.876-15.721,662.962-17.27z"/>
		<path style="clip-path:url(#SVGID_00000023999750736828008740000007526126470796367284_);fill:#002933;" d="M142.534,421.977
			c-4.681-1.854-11.248,0.522-15.337,2.967c-4.602,2.751-8.19,6.935-10.163,11.911c-1.809,4.562-1.62,11.022-5.011,14.777
			c-3.09,3.422-8.825,3.276-13.037,3.75c-5.008,0.563-10.057,1.374-14.22,4.427c-3.735,2.739-5.938,6.651-7.421,10.965
			c-1.424,4.143-1.999,8.525-3.455,12.657c-1.624,4.607-4.08,6.983-9.038,7.69c-6.421,0.915-12.513,1.277-16.493,7.15
			c-2.662,3.928-5.31,11.69-2.329,16.01c0.896,1.299,2.667,1.674,3.866,0.498c3.346-3.284,2.281-8.919,5.528-12.386
			c3.705-3.955,10.769-2.263,15.533-3.898c8.448-2.899,11.013-11.229,13.313-18.981c1.026-3.46,1.987-7.224,4.231-10.139
			c2.62-3.402,7.012-4.032,11.026-4.454c9.804-1.03,19.14-2.558,23.174-12.833c1.944-4.952,1.891-10.948,5.314-15.233
			c1.575-1.972,3.736-3.573,6.054-4.564c2.777-1.188,5.635-0.832,8.467-1.603C147.173,429.425,146.447,423.527,142.534,421.977z"/>
		<path style="clip-path:url(#SVGID_00000023999750736828008740000007526126470796367284_);fill:#002933;" d="M638.688-36.868
			c-4.604-1.829-11.064,0.515-15.086,2.927c-4.526,2.715-8.055,6.842-9.996,11.752c-1.779,4.501-1.593,10.874-4.929,14.579
			c-3.04,3.376-8.68,3.232-12.823,3.699c-4.926,0.555-9.892,1.356-13.987,4.368c-3.674,2.702-5.841,6.562-7.299,10.818
			c-1.4,4.087-1.966,8.411-3.398,12.487c-1.597,4.545-4.013,6.89-8.89,7.587c-6.315,0.903-12.308,1.26-16.223,7.054
			c-2.619,3.875-5.223,11.533-2.291,15.796c0.882,1.282,2.624,1.652,3.802,0.492c3.291-3.24,2.244-8.8,5.438-12.22
			c3.644-3.902,10.592-2.233,15.278-3.845c8.31-2.86,10.832-11.079,13.095-18.727c1.01-3.413,1.954-7.127,4.162-10.003
			c2.577-3.357,6.897-3.978,10.845-4.395c9.644-1.017,18.826-2.524,22.794-12.661c1.913-4.886,1.86-10.801,5.227-15.028
			c1.549-1.945,3.675-3.525,5.955-4.503c2.732-1.172,5.543-0.821,8.328-1.581C643.251-29.521,642.538-35.34,638.688-36.868z"/>
		<path style="clip-path:url(#SVGID_00000023999750736828008740000007526126470796367284_);fill:#FFFFFF;" d="M773.598,114.275
			c-3.437,0.191-6.778,1.037-10.208,1.394c-3.435,0.357-6.894,0.475-10.346,0.362c-6.869-0.226-13.687-1.387-20.261-3.384
			c-13.202-4.011-25.391-11.46-34.665-21.713c-9.514-10.519-15.588-23.857-17.983-37.792c-2.388-13.893-1.045-28.466,4.179-41.58
			c4.933-12.385,14.727-25.606,28.713-27.991c1.704-0.291,3.438-0.546,5.159-0.706c0.608-0.056,0.853-1.014,0.156-1.151
			c-6.857-1.35-13.954,1.786-19.358,5.85c-5.844,4.396-10.486,10.293-13.89,16.737c-6.861,12.987-9.461,28.174-8.16,42.746
			c1.307,14.647,6.486,29.033,15.417,40.773c8.768,11.526,20.841,20.198,34.329,25.374c13.41,5.146,28.203,6.738,42.362,4.214
			c1.799-0.321,3.331-0.767,4.99-1.533C774.808,115.519,774.422,114.23,773.598,114.275z"/>
		<path style="clip-path:url(#SVGID_00000023999750736828008740000007526126470796367284_);fill:#FFFFFF;" d="M334.965-11.741
			c-0.169-0.82-1.314-0.7-1.544,0c-0.266,0.806-0.628,1.615-0.777,2.45c-0.163,0.915-0.199,1.862-0.32,2.785
			c-0.234,1.787-0.549,3.564-0.924,5.326c-0.763,3.586-1.797,7.118-3.075,10.554c-2.518,6.772-6.056,13.169-10.359,18.969
			c-8.891,11.986-21.286,21.245-35.413,26.102c-15.155,5.21-31.842,5.609-47.287,1.406c-14.691-3.998-27.845-12.293-38.083-23.528
			c-9.864-10.825-16.921-24.2-20.219-38.472c-0.408-1.767-0.776-3.547-1.14-5.323c-0.226-1.103-2.132-0.875-1.995,0.27
			c1.781,14.85,8.753,29.33,17.958,40.98c9.616,12.171,22.449,21.626,37.088,26.824c15.586,5.535,32.894,6.296,48.899,2.119
			c15.169-3.958,28.809-12.545,39.006-24.443c9.817-11.455,16.413-25.602,18.34-40.597c0.11-0.856,0.259-1.736,0.287-2.599
			C335.437-9.854,335.153-10.827,334.965-11.741z"/>
		<path style="clip-path:url(#SVGID_00000023999750736828008740000007526126470796367284_);fill:#FFFFFF;" d="M309.566-9.433
			c0.427,19.753-13.255,38.107-31.196,45.563c-20.428,8.489-44.782,3.668-62.383-9.041c-5.339-3.855-9.59-8.688-12.65-14.52
			c-3.01-5.736-4.89-11.98-6.948-18.098c-0.398-1.182-2.212-0.706-1.883,0.519c3.09,11.515,7.161,23.167,16.349,31.278
			c8.688,7.669,19.814,12.837,31.096,15.273c11.158,2.409,22.978,2.172,33.848-1.469c9.916-3.322,18.788-9.562,25.321-17.725
			c7.2-8.997,11.604-20.172,11.376-31.78C312.459-11.316,309.525-11.322,309.566-9.433z"/>
		<path style="clip-path:url(#SVGID_00000023999750736828008740000007526126470796367284_);fill:#FFFFFF;" d="M589.045,505.308
			c-0.658-1.753-1.372-3.485-2.131-5.197c-3.076-6.939-7.011-13.487-11.635-19.504c-9.177-11.941-21.06-21.914-34.712-28.354
			c-13.889-6.552-29.261-9.181-44.498-6.993c-16.943,2.432-32.762,10.418-45.874,21.255c-13.472,11.135-24.573,25.638-31.395,41.758
			c-0.389,0.919-0.765,1.842-1.134,2.769c-0.387,0.97-0.393,1.938-0.501,2.977c-0.023,0.217,0.262,0.231,0.364,0.098
			c0.625-0.813,1.28-1.487,1.703-2.415c0.439-0.963,0.898-1.918,1.367-2.867c0.938-1.901,1.914-3.787,2.922-5.651
			c1.952-3.612,4.094-7.122,6.412-10.51c4.691-6.854,10.074-13.264,16.073-19.01c11.595-11.104,25.784-19.783,41.353-23.954
			c14.29-3.829,29.231-3.377,43.246,1.357c13.288,4.488,25.285,12.479,35.043,22.501c4.967,5.101,9.362,10.74,13.082,16.811
			c1.838,3,3.512,6.102,5.005,9.288c0.772,1.648,1.494,3.318,2.16,5.012c0.31,0.788,0.608,1.58,0.895,2.376
			c0.268,0.743,0.71,1.603,0.787,2.391c0.056,0.574-0.158,1.13-0.416,1.629c-0.105,0.203-0.292,0.412-0.37,0.637
			c-0.51-0.523-1.213,0.129-1.133,0.72c0.166,1.222,1.24,1.723,2.354,1.321c1.414-0.51,2.068-2.102,2.247-3.493
			C590.479,508.552,589.632,506.872,589.045,505.308z"/>
		<path style="clip-path:url(#SVGID_00000023999750736828008740000007526126470796367284_);fill:#FFFFFF;" d="M568.132,505.768
			c-1.199-2.221-2.521-4.375-3.954-6.453c-2.897-4.2-6.225-8.107-9.911-11.634c-7.315-6.999-15.966-12.525-25.357-16.293
			c-9.41-3.775-19.631-5.689-29.776-5.305c-6.181,0.234-12.402,1.212-18.106,3.679c-5.48,2.37-10.331,5.947-14.836,9.821
			c-5.299,4.557-10.288,9.501-14.915,14.738c-2.383,2.696-4.677,5.47-6.881,8.314c-2.066,2.666-4.408,5.362-5.293,8.671
			c-0.041,0.153,0.143,0.323,0.287,0.221c2.464-1.752,4.132-4.294,5.987-6.649c1.853-2.352,3.769-4.655,5.747-6.904
			c4.054-4.611,8.346-9.025,12.86-13.186c4.252-3.92,8.696-7.701,13.72-10.604c5.518-3.189,11.566-4.819,17.892-5.38
			c19.645-1.743,39.548,5.472,54.283,18.418c4.114,3.614,7.862,7.669,11.064,12.114c1.615,2.242,3.101,4.578,4.44,6.996
			c1.35,2.436,2.411,4.959,4.064,7.213c0.541,0.737,1.552,0.282,1.428-0.602C570.504,510.316,569.382,508.082,568.132,505.768z"/>
		<path style="clip-path:url(#SVGID_00000023999750736828008740000007526126470796367284_);fill:#FFFFFF;" d="M68.145,289.883
			c-3.63-15.067-11.586-29.221-22.918-39.837c-13.445-12.597-31.209-18.878-49.155-21.668c-2.332-0.362-4.673-0.567-7.026-0.747
			c-0.75-0.057-0.927,1.182-0.179,1.323c9.354,1.768,18.744,3.514,27.74,6.708c8.178,2.904,16.014,6.93,22.78,12.401
			c11.724,9.481,20.282,22.617,24.745,36.981c4.443,14.297,4.864,29.877,0.283,44.196c-4.686,14.648-14.367,27.503-26.671,36.646
			c-12.447,9.25-27.365,14.738-42.88,15.39c-1.909,0.08-3.811,0.421-5.714,0.598c-0.663,0.062-0.926,1.096-0.169,1.252
			c1.919,0.395,3.918,0.817,5.884,0.795c2.011-0.022,4.019-0.133,6.018-0.357c3.952-0.442,7.867-1.184,11.702-2.239
			c7.719-2.125,15.126-5.455,21.875-9.759c13.408-8.551,24.436-21.003,30.57-35.734C71.058,321.353,71.802,305.061,68.145,289.883z"
			/>
		<path style="clip-path:url(#SVGID_00000023999750736828008740000007526126470796367284_);fill:#002933;" d="M57.05,200.805
			c10.585,11.201,21.658,21.929,32.845,32.526c0.813,0.77,2.109,1.396,3.258,0.984c0.149-0.053,0.269-0.118,0.404-0.175
			c0.972,0.174,1.995-0.133,2.538-1.185c1.984-3.84,4.076-7.631,6.043-11.487c2.003-3.925,4.011-7.847,6.003-11.778
			c3.983-7.863,7.966-15.726,11.95-23.59c1.052-2.077-0.076-4.681-2.591-4.763c-9.649-0.316-18.997,2.793-28.188,5.325
			c-10.18,2.805-20.328,5.779-30.543,8.452C56.296,195.763,55.24,198.889,57.05,200.805z M90.308,193.376
			c4.6-1.301,9.188-2.673,13.813-3.881c2.691-0.703,5.408-1.307,8.158-1.639c-3.126,6.318-6.252,12.637-9.378,18.955
			c-1.956,3.955-3.894,7.918-5.839,11.878c-1.336,2.72-2.792,5.43-4.069,8.204c-9.023-8.854-17.922-17.831-26.874-26.755
			C74.166,197.833,82.255,195.653,90.308,193.376z"/>
		<path style="clip-path:url(#SVGID_00000023999750736828008740000007526126470796367284_);fill:#002933;" d="M107.953,124.582
			c-2.074,12.069-3.615,24.223-5.019,36.388c-0.102,0.884,0.118,2.007,0.928,2.541c0.105,0.069,0.203,0.115,0.304,0.173
			c0.353,0.701,1.036,1.204,1.963,1.049c3.387-0.57,6.794-1.047,10.183-1.635c3.45-0.598,6.901-1.191,10.349-1.799
			c6.898-1.217,13.796-2.433,20.694-3.65c1.822-0.321,2.94-2.28,1.793-3.918c-4.399-6.285-10.833-10.746-16.824-15.381
			c-6.636-5.135-13.365-10.168-19.935-15.387C110.799,121.699,108.308,122.518,107.953,124.582z M128.532,142.183
			c3.02,2.304,6.079,4.566,9.053,6.931c1.73,1.376,3.409,2.815,4.932,4.404c-5.507,1.025-11.014,2.05-16.521,3.075
			c-3.447,0.642-6.891,1.299-10.335,1.951c-2.366,0.448-4.783,0.814-7.156,1.325c1.327-9.957,2.791-19.894,4.196-29.84
			C118.003,134.047,123.245,138.15,128.532,142.183z"/>
		<path style="clip-path:url(#SVGID_00000023999750736828008740000007526126470796367284_);fill:#002933;" d="M154.948,177.256
			c-8.118,4.391-16.037,9.137-23.899,13.971c-0.572,0.351-1.134,1.004-1.073,1.733c0.008,0.095,0.027,0.174,0.039,0.261
			c-0.251,0.535-0.231,1.175,0.293,1.652c1.915,1.742,3.784,3.538,5.711,5.273c1.961,1.766,3.919,3.535,5.885,5.295
			c3.933,3.521,7.866,7.042,11.799,10.562c1.039,0.93,2.72,0.68,3.157-0.762c1.675-5.534,1.323-11.423,1.28-17.132
			c-0.048-6.323-0.199-12.655-0.165-18.978C157.982,177.6,156.337,176.505,154.948,177.256z M154.102,197.646
			c0.041,2.863,0.125,5.729,0.109,8.592c-0.01,1.666-0.08,3.331-0.313,4.973c-3.172-2.786-6.344-5.572-9.515-8.358
			c-1.985-1.744-3.979-3.478-5.969-5.216c-1.367-1.194-2.71-2.455-4.117-3.623c6.518-3.851,13.088-7.61,19.636-11.409
			C154.02,187.618,154.03,192.635,154.102,197.646z"/>
		<path style="clip-path:url(#SVGID_00000023999750736828008740000007526126470796367284_);fill:#002933;" d="M668.036,197.91
			c-4.033-3.237-9.236-4.809-14.442-4.385c-20.977,1.709-21.207,33.701-3.521,40.572c4.176,1.622,9.062,1.903,13.348,0.507
			c4.552-1.483,8.344-4.755,10.613-8.877C679.062,216.596,676.16,204.43,668.036,197.91z M671.144,220.768
			c-1.105,3.503-3.504,6.645-6.763,8.486c-3.055,1.726-6.778,2.117-10.198,1.374c-7.533-1.637-12.448-8.135-12.71-15.58
			c-0.382-10.881,9.478-21.182,20.951-15.289C669.783,203.541,673.573,213.071,671.144,220.768z"/>
		<path style="clip-path:url(#SVGID_00000023999750736828008740000007526126470796367284_);fill:#002933;" d="M738.325,259.478
			c1.465-7.079,0.28-14.873-3.264-21.644c-14.281-27.283-52.195-11.142-49.97,16.136c0.526,6.441,3.051,13.144,7.205,18.18
			c4.413,5.349,10.492,8.757,16.687,9.684C722.704,283.888,735.375,273.736,738.325,259.478z M713.149,275.404
			c-4.782,0.317-9.896-1.287-13.975-4.716c-3.824-3.215-6.463-8.011-7.584-12.985c-2.47-10.955,2.329-20.895,10.968-25.075
			c12.626-6.108,30.555,1.832,30.302,20.266C732.697,264.718,723.659,274.706,713.149,275.404z"/>
		<path style="clip-path:url(#SVGID_00000023999750736828008740000007526126470796367284_);fill:#002933;" d="M714.511,190.102
			c-2.81-2.303-6.434-3.422-10.061-3.12c-14.613,1.216-14.773,23.981-2.452,28.87c2.909,1.154,6.313,1.354,9.298,0.36
			c3.171-1.055,5.812-3.383,7.393-6.317C722.191,203.399,720.17,194.742,714.511,190.102z M716.676,206.368
			c-0.77,2.492-2.441,4.729-4.711,6.039c-2.128,1.228-4.722,1.507-7.104,0.978c-5.248-1.165-8.672-5.788-8.854-11.086
			c-0.266-7.743,6.602-15.073,14.595-10.879C715.728,194.109,718.368,200.89,716.676,206.368z"/>
		<path style="clip-path:url(#SVGID_00000023999750736828008740000007526126470796367284_);fill:#00536D;" d="M136.563,317.825
			c-0.331-2.297-0.568-4.607-0.785-6.917c-0.447-4.777-0.759-9.565-1.272-14.336c-0.893-8.321-2.334-17.215-6.425-24.637
			c-1.114-2.021-2.38-3.964-3.835-5.757c-1.228-1.514-2.804-3.634-4.861-3.897c-0.421-0.054-0.847,0.42-0.82,0.82
			c0.117,1.758,1.599,3.335,2.47,4.801c0.993,1.672,1.908,3.4,2.675,5.188c1.551,3.614,2.814,7.382,3.719,11.209
			c2.024,8.562,2.35,17.398,3.113,26.131c0.222,2.544,0.484,5.084,0.821,7.616c0.335,2.518,0.973,5.412,3.133,7.027
			c0.449,0.336,1.158,0.068,1.416-0.371C137.079,322.717,136.876,319.999,136.563,317.825z"/>
		<path style="clip-path:url(#SVGID_00000023999750736828008740000007526126470796367284_);fill:#00536D;" d="M270.049,469.811
			c-0.382-1.467-0.829-2.92-1.314-4.356c-1.003-2.97-2.202-5.881-3.55-8.711c-2.596-5.453-5.839-10.579-9.502-15.376
			c-7.637-10.002-16.884-18.59-26.779-26.32c-19.722-15.405-41.981-27.336-60.838-43.887c-5.217-4.579-10.146-9.503-14.543-14.88
			c-2.137-2.614-4.125-5.348-5.956-8.185c-0.906-1.404-1.734-2.857-2.655-4.251c-0.518-0.784-1.079-1.557-1.721-2.246
			c-0.601-0.646-1.308-0.9-2.101-1.255c-0.341-0.153-0.789-0.052-0.889,0.362c-0.146,0.601-0.382,1.276-0.368,1.898
			c0.018,0.741,0.347,1.61,0.607,2.299c0.567,1.506,1.404,2.9,2.239,4.269c1.597,2.621,3.332,5.158,5.181,7.608
			c3.758,4.979,7.923,9.621,12.409,13.953c9.06,8.748,19.24,16.242,29.592,23.375c20.392,14.052,41.849,27.136,57.918,46.361
			c4.256,5.091,8.017,10.613,11.053,16.518c1.497,2.913,2.783,5.871,3.855,8.963c0.537,1.55,1.02,3.118,1.447,4.702
			c0.231,0.858,0.426,1.73,0.679,2.582c0.286,0.963,0.788,1.794,1.258,2.674c1.207,2.259,4.231,0.974,4.44-1.203
			C270.676,472.981,270.485,471.487,270.049,469.811z"/>
		<path style="clip-path:url(#SVGID_00000023999750736828008740000007526126470796367284_);fill:#00536D;" d="M413.354,124.793
			c-0.643-0.318-1.286-0.61-1.872-1.02c-0.616-0.432-1.174-0.914-1.849-1.26c-1.387-0.711-2.933-1.131-4.41-1.607
			c-2.859-0.922-5.691-1.926-8.491-3.011c-5.61-2.174-11.081-4.7-16.392-7.526c-11.065-5.888-20.921-13.406-31.024-20.755
			c-2.88-2.095-5.754-4.2-8.63-6.3c-1.471-1.074-2.943-2.14-4.443-3.173c-1.407-0.968-2.644-2.085-4.439-1.776
			c-0.158,0.027-0.298,0.219-0.287,0.377c0.101,1.484,0.995,2.285,2.061,3.233c1.361,1.211,2.73,2.407,4.125,3.579
			c2.502,2.103,5.004,4.207,7.507,6.308c4.97,4.171,10.062,8.157,15.346,11.925c10.091,7.197,20.869,13.248,32.313,18.014
			c3.191,1.329,6.425,2.553,9.697,3.668c1.559,0.531,3.127,1.1,4.747,1.42c1.789,0.353,3.621,0.042,5.432,0.159
			C413.923,127.126,414.418,125.32,413.354,124.793z"/>
		<path style="clip-path:url(#SVGID_00000023999750736828008740000007526126470796367284_);fill:#00536D;" d="M627.217,110.004
			c-0.805,0.168-1.642,0.265-2.395,0.6c-0.751,0.334-1.49,0.706-2.226,1.071c-1.501,0.743-2.805,1.668-4.187,2.611
			c-2.725,1.86-5.501,3.645-8.322,5.356c-5.524,3.35-11.206,6.439-17.035,9.225c-11.692,5.586-23.978,9.919-36.56,13.011
			c-25.259,6.207-51.742,7.215-77.366,2.67c-8.369-1.484-16.623-3.505-24.815-5.757c-8.148-2.24-16.155-4.945-24.579-5.917
			c-0.952-0.11-1.236,1.32-0.473,1.747c6.742,3.772,14.064,6.031,21.436,8.235c7.367,2.202,14.824,4.143,22.351,5.721
			c13.444,2.818,27.151,4.24,40.89,4.109c26.648-0.254,53.124-6.086,77.494-16.832c6.79-2.994,13.425-6.369,19.804-10.162
			c3.19-1.897,6.325-3.889,9.395-5.975c1.55-1.053,3.208-2.061,4.539-3.384c0.674-0.67,1.346-1.347,1.974-2.062
			c0.646-0.736,1.042-1.564,1.487-2.43C629.141,110.843,628.3,109.777,627.217,110.004z"/>
		<path style="clip-path:url(#SVGID_00000023999750736828008740000007526126470796367284_);fill:#00536D;" d="M651.744,50.753
			c-0.367-2.434-0.88-4.848-1.54-7.22c-0.725-2.607-2.315-4.812-4.147-6.765c-0.762-0.812-2.223-0.19-2.201,0.911
			c0.045,2.189,0.04,4.506,0.56,6.643c0.507,2.083,1.086,4.127,1.466,6.241c0.747,4.147,0.995,8.385,0.852,12.595
			c-0.286,8.402-2.268,16.884-5.907,24.474c-1.064,2.22-2.285,4.366-3.446,6.536c-0.69,1.29-3.462,5.725-0.816,6.439
			c2.181,0.589,4.294-2.508,5.417-3.975c1.349-1.763,2.427-3.668,3.427-5.647c2.068-4.089,3.733-8.405,4.917-12.832
			C652.715,69.237,653.118,59.864,651.744,50.753z"/>
		<path style="clip-path:url(#SVGID_00000023999750736828008740000007526126470796367284_);fill:#002933;" d="M308.58,461.055
			c-0.975-2.003-2.733-2.467-4.676-3.246c-1.604-0.643-3.152-1.444-4.64-2.322c-3.139-1.852-5.938-4.15-8.457-6.78
			c-5.109-5.335-8.374-11.854-10.344-18.927c-0.552-1.98-1.01-4.016-1.258-6.058c-0.123-1.016-0.142-2.046-0.314-3.055
			c-0.093-0.543-0.527-1.989-1.376-1.762c-2,0.536-1.773,3.508-1.83,5.17c-0.067,1.958,0.036,3.901,0.301,5.841
			c0.545,3.998,1.847,7.734,3.634,11.347c3.571,7.22,9.13,13.453,15.936,17.766c1.927,1.221,3.954,2.249,6.056,3.13
			c2.172,0.91,4.442,1.881,6.576,0.391C308.7,462.193,308.857,461.624,308.58,461.055z"/>
		<path style="clip-path:url(#SVGID_00000023999750736828008740000007526126470796367284_);fill:#002933;" d="M432.838,467.738
			c-0.954-1.507-3.138-1.696-4.764-1.688c-3.139,0.015-6.283,0.147-9.419,0.269c-11.982,0.465-23.894,1.611-35.838,2.613
			c-6.553,0.55-13.136,0.93-19.714,0.699c-3.245-0.114-6.476-0.402-9.716-0.59c-1.527-0.088-3.051-0.225-4.568-0.419
			c-0.785-0.1-1.478-0.089-2.267-0.023c-0.776,0.065-1.479,0.406-2.255,0.397c-0.257-0.003-0.338,0.343-0.128,0.473
			c0.57,0.352,0.85,0.863,1.353,1.271c0.441,0.357,1.02,0.68,1.53,0.928c1.348,0.655,2.963,0.973,4.407,1.361
			c2.845,0.764,5.69,1.184,8.621,1.451c5.827,0.531,11.721,0.396,17.556,0.092c11.872-0.618,23.688-1.986,35.568-2.534
			c3.137-0.145,6.276-0.258,9.415-0.339c1.487-0.038,2.975-0.069,4.462-0.093c1.546-0.025,3.638,0.034,4.937-0.919
			C432.99,469.978,433.534,468.837,432.838,467.738z"/>
		<path style="clip-path:url(#SVGID_00000023999750736828008740000007526126470796367284_);fill:#03ABED;" d="M237.642,153.972
			c-1.031,0-2.084,0.459-3.043,0.905c-1.765,0.26-3.259,1.559-4.693,2.542c-1.591,1.091-3.228,2.115-4.904,3.07
			c-3.204,1.826-6.545,3.407-10.006,4.684c-7.003,2.584-14.259,4.087-21.711,4.47c-4.283,0.22-8.642,0.521-12.93,0.328
			c-0.643-0.029-1.242,0.476-1.412,1.075c0.179-0.627-0.184,0.135-0.128,0.292c0.03,0.182,0.055,0.215,0.076,0.098
			c-0.021,0.635,0.469,1.251,1.075,1.413c3.856,1.026,7.718,1.893,11.724,1.94c4.026,0.048,8.056-0.354,12.027-1
			c7.93-1.29,15.615-3.93,22.703-7.711c1.937-1.033,3.826-2.156,5.657-3.367c1.781-1.177,4.225-2.547,5.042-4.653
			c0.653-0.844,1.33-1.796,1.486-2.824C238.697,154.605,238.35,153.971,237.642,153.972z"/>
		<path style="clip-path:url(#SVGID_00000023999750736828008740000007526126470796367284_);fill:#03ABED;" d="M264.961,91.706
			c-0.25-2.157-0.479-4.351-1.351-6.362c-0.479-1.104-2.046-2.867-3.38-2.341c-0.138,0.054-0.234,0.181-0.191,0.336
			c0.167,0.608,0.622,1.046,0.736,1.654c0.139,0.744,0.168,1.608,0.168,2.365c0,2.033-0.076,4.087-0.167,6.12
			c-0.192,4.285-0.497,8.573-0.994,12.835c-0.972,8.336-3.168,16.57-6.329,24.339c-0.786,1.932-5.902,10.982-1.35,11.223
			c2.294,0.121,3.905-2.939,4.717-4.748c0.887-1.976,1.719-3.979,2.483-6.005c3.061-8.113,4.971-16.624,5.814-25.25
			C265.578,101.148,265.508,96.421,264.961,91.706z"/>
		<path style="clip-path:url(#SVGID_00000023999750736828008740000007526126470796367284_);fill:#03ABED;" d="M619.397,136.336
			c-0.681-0.113-1.158-0.156-1.737,0.28c-0.712,0.535-1.24,1.244-1.775,1.944c-1.074,1.404-2.085,2.855-3.025,4.353
			c-1.853,2.954-3.388,6.055-4.565,9.34c-2.333,6.507-3.251,13.892-2.956,20.779c0.073,1.694,0.227,3.382,0.447,5.063
			c0.257,1.965,0.649,3.713,2.215,5.071c1.542,1.338,2.764,0.138,3.276-1.46c0.562-1.755,0.171-3.442-0.006-5.226
			c-0.668-6.715-0.186-13.502,1.528-20.031c0.973-3.706,2.114-7.421,3.552-10.975c0.719-1.777,1.56-3.51,2.474-5.195
			c0.411-0.758,0.999-1.661,1.109-2.532C619.97,137.472,619.804,136.404,619.397,136.336z"/>
		<path style="clip-path:url(#SVGID_00000023999750736828008740000007526126470796367284_);fill:#03ABED;" d="M622.535,205.798
			c-0.982-1.171-2.193-2.149-3.197-3.309c-0.258-0.298-0.508-0.603-0.756-0.909c-0.036-0.045-0.07-0.087-0.097-0.122
			c-0.091-0.121-0.182-0.242-0.271-0.364c-0.468-0.639-0.873-1.317-1.328-1.964c-0.008-0.011-0.426-0.557-0.404-0.525
			c-0.08-0.106-0.16-0.212-0.239-0.318c-0.235-0.319-0.464-0.642-0.687-0.969c-0.419-0.615-0.798-1.252-1.188-1.885
			c-0.405-0.658-0.824-1.331-1.279-1.956c-0.24-0.329-0.475-0.728-0.833-0.938c-0.22-0.129-0.477-0.135-0.666-0.279
			c-0.131-0.1-0.26-0.317-0.36-0.442c-0.134-0.167-0.452-0.076-0.49,0.129c-0.034,0.183-0.043,0.388-0.101,0.564
			c-0.077,0.232-0.245,0.32-0.38,0.552c-0.234,0.401-0.218,0.913-0.206,1.362c0.022,0.829,0.174,1.725,0.362,2.535
			c0.388,1.676,1.031,3.515,1.848,5.025c0.836,1.544,1.953,2.982,3.053,4.341c1.125,1.39,2.366,2.824,3.873,3.809
			c1.153,0.753,2.761,0.324,3.56-0.711C623.636,208.276,623.431,206.866,622.535,205.798z"/>
		<path style="clip-path:url(#SVGID_00000023999750736828008740000007526126470796367284_);fill:#002933;" d="M511.409,402.525
			c-0.523-0.47-1.044-1.062-1.655-1.419c-0.754-0.441-1.697-0.487-2.544-0.608c-1.847-0.263-3.721-0.353-5.578-0.52
			c-3.26-0.294-6.516-0.628-9.769-0.999c-6.486-0.739-12.953-1.627-19.405-2.621c-12.97-1.997-25.875-4.393-38.757-6.892
			c-25.975-5.039-51.921-10.549-78.227-13.612c-7.207-0.839-14.449-1.587-21.712-1.63c-3.685-0.022-7.419,0.227-11.058,0.813
			c-1.76,0.284-3.51,0.633-5.242,1.058c-1.849,0.453-3.509,1.313-5.268,2.028c-1.043,0.423-0.663,1.891,0.467,1.695
			c1.584-0.275,3.155-0.219,4.736-0.447c1.699-0.246,3.406-0.418,5.119-0.525c3.121-0.195,6.235-0.274,9.362-0.215
			c6.47,0.124,12.887,0.688,19.308,1.481c12.958,1.602,25.851,3.734,38.686,6.122c25.799,4.801,51.398,10.657,77.277,15.033
			c7.344,1.242,14.71,2.355,22.097,3.307c3.566,0.46,7.138,0.878,10.715,1.247c1.828,0.189,3.658,0.377,5.49,0.528
			c0.951,0.078,1.917,0.134,2.869,0.046c1.097-0.101,1.865-0.672,2.752-1.264C511.914,404.571,512.249,403.28,511.409,402.525z"/>
		<path style="clip-path:url(#SVGID_00000023999750736828008740000007526126470796367284_);fill:#002933;" d="M592.403,392.068
			c-0.259-0.02-0.55-0.247-0.826-0.323c-0.455-0.125-0.963-0.096-1.43-0.165c-1.23-0.183-2.385-0.036-3.594,0.275
			c-2.081,0.535-4.153,1.099-6.242,1.607c-4.021,0.976-8.047,1.916-12.107,2.721c-8.11,1.609-16.275,2.688-24.496,3.535
			c-2.444,0.252-4.948,0.319-7.368,0.738c-2.332,0.403-4.512,0.983-6.776,1.651c-0.531,0.157-0.857,0.621-0.884,1.161
			c-0.092-0.047-0.183-0.094-0.275-0.141c-0.163,0.044-0.172,0.3,0,0.339l0.318,0.122c0.059,0.392,0.473,0.751,0.841,0.841
			c2.113,0.515,4.106,0.938,6.284,1.108c2.071,0.162,4.122,0.038,6.195-0.074c4.289-0.232,8.56-0.651,12.822-1.182
			c8.476-1.055,16.9-2.517,25.219-4.462c2.324-0.544,4.632-1.161,6.931-1.797c1.216-0.336,2.521-0.653,3.61-1.319
			c0.525-0.321,0.956-0.825,1.444-1.199c0.494-0.379,0.74-0.93,1.219-1.301C594.229,393.473,593.351,392.14,592.403,392.068z"/>
		<path style="clip-path:url(#SVGID_00000023999750736828008740000007526126470796367284_);fill:#002933;" d="M705.014,332.322
			c-0.217,0.048-0.43,0.08-0.646,0.11c-0.363-0.126-0.733-0.211-1.143-0.186c-0.991,0.059-1.657,0.513-2.39,1.147
			c-0.615,0.533-1.236,1.06-1.862,1.581c-1.328,1.106-2.684,2.17-3.978,3.315c-1.261,1.116-2.471,2.188-3.579,3.462
			c-0.528,0.607-0.999,1.262-1.542,1.855c-0.307,0.335-0.597,0.67-0.882,1.024c-0.279,0.347-0.399,0.668-0.628,1.033
			c-0.261,0.417,0.169,0.803,0.573,0.746c0.307-0.043,0.568,0.009,0.886-0.072c0.426-0.108,0.84-0.227,1.249-0.385
			c0.765-0.296,1.562-0.497,2.329-0.79c1.724-0.661,3.239-1.491,4.786-2.488c1.532-0.988,2.956-2.107,4.375-3.251
			c0.674-0.543,1.343-1.093,2.006-1.65c1.111-0.932,1.727-2.015,1.501-3.392c0.069-0.261,0.13-0.523,0.218-0.784
			C706.553,332.805,705.738,332.164,705.014,332.322z"/>
		<path style="clip-path:url(#SVGID_00000023999750736828008740000007526126470796367284_);fill:#002933;" d="M742.801,290.251
			c-0.197-1.087-1.59-1.811-2.601-1.477c-1.267,0.419-2.073,0.954-2.855,2.033c-0.587,0.81-1.083,1.692-1.622,2.535
			c-1.08,1.69-2.196,3.357-3.348,4.999c-2.2,3.136-4.532,6.172-6.998,9.104c-2.537,3.017-5.165,5.953-7.929,8.765
			c-1.462,1.487-3.007,2.931-4.276,4.59c-1.155,1.51-2.188,3.146-3.118,4.802c-0.434,0.773,0.3,1.952,1.235,1.607
			c1.845-0.681,3.747-1.52,5.39-2.611c1.797-1.194,3.379-2.736,4.905-4.251c2.845-2.825,5.583-5.765,8.154-8.842
			c2.642-3.163,5.158-6.437,7.529-9.807c1.154-1.64,2.273-3.306,3.355-4.994c0.538-0.839,1.119-1.674,1.596-2.551
			C742.946,292.813,743.067,291.722,742.801,290.251z"/>
	</g>
</g>
</svg>
